<svg xmlns="http://www.w3.org/2000/svg" viewBox="0 0 64 64">
  <title>Covid-19 Tracker</title>
  <rect width="64" height="64" rx="14" fill="#cc1034"/>
  <g fill="#fff" stroke="#fff" stroke-width="4" stroke-linecap="round">
    <line x1="32" y1="20" x2="32" y2="11"/>
    <line x1="32" y1="44" x2="32" y2="53"/>
    <line x1="20" y1="32" x2="11" y2="32"/>
    <line x1="44" y1="32" x2="53" y2="32"/>
    <line x1="23.5" y1="23.5" x2="17.2" y2="17.2"/>
    <line x1="40.5" y1="23.5" x2="46.8" y2="17.2"/>
    <line x1="23.5" y1="40.5" x2="17.2" y2="46.8"/>
    <line x1="40.5" y1="40.5" x2="46.8" y2="46.8"/>
    <circle cx="32" cy="32" r="12" stroke="none"/>
    <circle cx="32" cy="10" r="4" stroke="none"/>
    <circle cx="32" cy="54" r="4" stroke="none"/>
    <circle cx="10" cy="32" r="4" stroke="none"/>
    <circle cx="54" cy="32" r="4" stroke="none"/>
    <circle cx="16.4" cy="16.4" r="4" stroke="none"/>
    <circle cx="47.6" cy="16.4" r="4" stroke="none"/>
    <circle cx="16.4" cy="47.6" r="4" stroke="none"/>
    <circle cx="47.6" cy="47.6" r="4" stroke="none"/>
  </g>
  <g fill="#cc1034">
    <circle cx="28" cy="29" r="2.6"/>
    <circle cx="36.5" cy="31" r="2"/>
    <circle cx="31" cy="37" r="1.8"/>
  </g>
</svg>
